# xmcd CD database file
#
# Track frame offsets:
#	150
#	10956
#	25281
#	49374
#	71036
#	87947
#	109397
#	121942
#	135929
#	152262
#	165890
#	186760
#	203640
#
# Disc length: 2938 seconds
#
# Revision: 2
# Processed by: cddbd v1.4b41PL1 Copyright (c) Steve Scherf et al.
# Submitted via: Feurio! 1.50.2ß - http://www.feurio.com
#
DISCID=a10b780d
DTITLE=Thievery Corporation - Mirror Conspiracy
DYEAR=1900
DGENRE=
TTITLE0=Treasures
TTITLE1=Le Monde
TTITLE2=Indra
TTITLE3=Lebanese Blonde
TTITLE4=Focus on Sight
TTITLE5=Air Batucada
TTITLE6=So Com Voce
TTITLE7=Samba Tranquille
TTITLE8=Shadows of Ourselves
TTITLE9=The Hong Kong Triad
TTITLE10=Illumination
TTITLE11=The Mirror Conspiracy
TTITLE12=Tomorrow
EXTD=
EXTT0=
EXTT1=
EXTT2=
EXTT3=
EXTT4=
EXTT5=
EXTT6=
EXTT7=
EXTT8=
EXTT9=
EXTT10=
EXTT11=
EXTT12=
PLAYORDER=
